<svg xmlns="http://www.w3.org/2000/svg" viewBox="0 0 1400 788" role="img" aria-labelledby="title desc">
  <title id="title">CRISPR programmable editing</title>
  <desc id="desc">A guide RNA rail aligns a Cas9 cutting shape with a DNA strand over a dark botanical gradient.</desc>
  <defs>
    <radialGradient id="bg" cx="56%" cy="50%" r="72%">
      <stop offset="0" stop-color="#153622"/>
      <stop offset=".5" stop-color="#081914"/>
      <stop offset="1" stop-color="#050909"/>
    </radialGradient>
    <linearGradient id="dna" x1="0" x2="1">
      <stop offset="0" stop-color="#65f0a2"/>
      <stop offset=".48" stop-color="#ffe66d"/>
      <stop offset="1" stop-color="#ff6ea8"/>
    </linearGradient>
    <filter id="soft" x="-80%" y="-80%" width="260%" height="260%">
      <feGaussianBlur stdDeviation="10" result="blur"/>
      <feMerge><feMergeNode in="blur"/><feMergeNode in="SourceGraphic"/></feMerge>
    </filter>
  </defs>
  <rect width="1400" height="788" fill="url(#bg)"/>
  <g opacity=".28" fill="none" stroke="#2d6d52" stroke-width="2">
    <path d="M60 168 C260 95 430 160 612 265 C820 385 1005 442 1338 336"/>
    <path d="M92 646 C328 522 472 574 686 626 C902 680 1058 548 1330 604"/>
  </g>
  <g transform="translate(140 170)">
    <path d="M0 245 C130 105 265 105 390 245 S650 385 780 245 S1040 105 1180 245" fill="none" stroke="url(#dna)" stroke-width="9" stroke-linecap="round" filter="url(#soft)"/>
    <path d="M0 315 C130 455 265 455 390 315 S650 175 780 315 S1040 455 1180 315" fill="none" stroke="url(#dna)" stroke-width="9" stroke-linecap="round" opacity=".72"/>
    <g stroke="#b9ffd6" stroke-width="4" opacity=".75">
      <path d="M92 178 L92 380"/><path d="M180 132 L180 426"/><path d="M280 158 L280 400"/>
      <path d="M500 370 L500 190"/><path d="M610 432 L610 128"/><path d="M720 368 L720 192"/>
      <path d="M930 160 L930 398"/><path d="M1042 125 L1042 432"/>
    </g>
  </g>
  <g transform="translate(462 198)">
    <path d="M0 86 C155 36 318 36 474 86" fill="none" stroke="#ffe66d" stroke-width="4" stroke-linecap="round"/>
    <path d="M34 118 C166 84 308 84 440 118" fill="none" stroke="#65f0a2" stroke-width="4" stroke-linecap="round"/>
    <g fill="#ffe66d">
      <circle cx="84" cy="98" r="8"/><circle cx="170" cy="78" r="8"/><circle cx="260" cy="72" r="8"/><circle cx="352" cy="80" r="8"/><circle cx="430" cy="100" r="8"/>
    </g>
  </g>
  <g transform="translate(658 270)">
    <path d="M0 0 L146 80 L146 230 L0 310 L-146 230 L-146 80 Z" fill="#132218" stroke="#ff6ea8" stroke-width="4"/>
    <path d="M-58 88 C-16 55 22 55 64 88 M-58 222 C-16 255 22 255 64 222" fill="none" stroke="#ffe66d" stroke-width="10" stroke-linecap="round"/>
    <path d="M-82 150 H82" stroke="#65f0a2" stroke-width="9" stroke-linecap="round"/>
    <path d="M-24 116 L28 196 M28 116 L-24 196" stroke="#ff6ea8" stroke-width="8" stroke-linecap="round"/>
  </g>
  <g opacity=".9">
    <rect x="1046" y="180" width="104" height="38" rx="19" fill="#16271d" stroke="#65f0a2" stroke-width="3"/>
    <rect x="1105" y="260" width="166" height="38" rx="19" fill="#21190b" stroke="#ffe66d" stroke-width="3"/>
    <rect x="1012" y="555" width="134" height="38" rx="19" fill="#28121d" stroke="#ff6ea8" stroke-width="3"/>
  </g>
</svg>
