<?xml version="1.0" standalone="no"?>
<!DOCTYPE svg PUBLIC "-//W3C//DTD SVG 20010904//EN"
 "http://www.w3.org/TR/2001/REC-SVG-20010904/DTD/svg10.dtd">
<svg version="1.0" xmlns="http://www.w3.org/2000/svg"
 width="500.000000pt" height="500.000000pt" viewBox="0 0 500.000000 500.000000"
 preserveAspectRatio="xMidYMid meet">
<metadata>
Created by potrace 1.14, written by Peter Selinger 2001-2017
</metadata>
<g transform="translate(0.000000,500.000000) scale(0.100000,-0.100000)"
fill="#000000" stroke="none">
<path d="M1490 4470 c-181 -19 -354 -110 -487 -254 -117 -127 -172 -243 -193
-401 -13 -100 -13 -2443 1 -2524 44 -273 255 -496 531 -561 79 -18 129 -19
1133 -20 679 -1 1068 2 1100 9 241 49 439 230 524 479 l26 77 3 1245 c3 1429
6 1376 -74 1540 -40 81 -60 108 -138 185 -103 102 -185 154 -301 191 -67 22
-108 27 -255 34 -220 9 -1783 10 -1870 0z m2025 -284 c107 -33 194 -110 262
-233 73 -130 68 -33 67 -1368 0 -1321 2 -1271 -61 -1388 -53 -95 -182 -186
-296 -208 -34 -6 -425 -8 -1043 -7 l-989 3 -68 32 c-76 36 -179 128 -226 202
-16 25 -38 73 -48 106 -17 57 -18 122 -17 1235 1 890 5 1190 14 1235 32 153
138 284 300 367 l65 33 915 5 c1025 6 1060 5 1125 -14z"/>
<path d="M2273 3296 c-65 -21 -126 -60 -179 -116 -26 -27 -52 -50 -56 -50 -4
0 -8 31 -8 69 0 108 11 101 -166 101 -85 0 -154 -3 -155 -7 -5 -52 -8 -194
-14 -672 -4 -310 -10 -573 -15 -585 -11 -28 -60 -72 -88 -79 -39 -9 -89 12
-125 53 l-33 39 -97 -55 c-53 -30 -97 -60 -97 -65 0 -6 7 -24 16 -42 71 -140
211 -203 414 -186 156 13 274 109 333 268 18 51 21 88 27 406 8 392 16 458 73
542 74 110 202 143 281 72 l31 -27 5 -629 5 -628 163 -3 162 -2 0 267 c1 668
5 897 19 932 31 76 108 130 184 131 50 0 113 -33 138 -73 20 -31 20 -42 13
-502 -3 -258 -7 -533 -8 -610 l-1 -140 160 0 160 0 8 550 c10 719 8 774 -25
846 -37 81 -83 121 -180 160 -77 31 -91 33 -203 34 -114 0 -123 -1 -172 -29
-29 -16 -75 -51 -102 -77 -27 -27 -53 -49 -57 -48 -5 0 -26 22 -46 49 -53 70
-143 112 -246 117 -47 2 -93 -3 -119 -11z"/>
</g>
</svg>
